<svg width="256" height="256" viewBox="0 0 256 256" fill="none" xmlns="http://www.w3.org/2000/svg">
    <path
        d="M118.672 0H49.3285C46.9379 0 45 1.96274 45 4.38391V74.6161C45 77.0372 46.9379 79 49.3285 79H118.672C121.062 79 123 77.0372 123 74.6161V4.38391C123 1.96274 121.062 0 118.672 0Z"
        fill="white" />
    <path
        d="M45 181.385V251.616C45 254.037 46.9379 256 49.3284 256H118.672C121.062 256 123 254.037 123 251.616V181.385C123 178.963 121.062 177 118.672 177H49.3284C46.9379 177 45 178.963 45 181.385Z"
        fill="white" />
    <path
        d="M45 93.3836V163.615C45 166.037 46.9379 168 49.3285 168H118.672C121.062 168 123 166.037 123 163.615V93.3836C123 90.9626 121.062 89 118.672 89H49.3285C46.9379 89 45 90.9626 45 93.3836Z"
        fill="white" />
    <path
        d="M133 181.385V251.616C133 254.037 134.963 256 137.384 256H207.616C210.037 256 212 254.037 212 251.616V181.385C212 178.963 210.037 177 207.616 177H137.384C134.963 177 133 178.963 133 181.385Z"
        fill="white" />
    <path
        d="M133 93.3836V163.615C133 166.037 134.963 168 137.384 168H207.616C210.037 168 212 166.037 212 163.615V93.3836C212 90.9626 210.037 89 207.616 89H137.384C134.963 89 133 90.9626 133 93.3836Z"
        fill="white" />
</svg>